<?xml version="1.0" encoding="UTF-8" standalone="no"?>
<!DOCTYPE svg PUBLIC "-//W3C//DTD SVG 1.1//EN" "http://www.w3.org/Graphics/SVG/1.1/DTD/svg11.dtd">
<svg xmlns="http://www.w3.org/2000/svg" version="1.1" viewBox="0.00 0.00 300.00 300.00">
<path fill="#0b57a3" d="
  M 181.22 106.00
  L 280.17 106.00
  A 0.34 0.34 0.0 0 1 280.37 106.62
  L 260.26 121.19
  A 0.34 0.34 0.0 0 1 260.06 121.25
  L 39.94 121.25
  A 0.34 0.34 0.0 0 1 39.74 121.19
  L 19.59 106.61
  A 0.34 0.34 0.0 0 1 19.79 105.99
  L 118.78 106.01
  A 0.34 0.34 0.0 0 0 119.11 105.77
  L 149.68 11.59
  A 0.34 0.34 0.0 0 1 150.32 11.59
  L 180.89 105.76
  A 0.34 0.34 0.0 0 0 181.22 106.00
  Z"
/>
<path fill="#ec202b" d="
  M 275.59 126.51
  L 262.17 139.92
  A 0.31 0.31 0.0 0 1 261.95 140.01
  L 30.06 140.01
  A 0.31 0.31 0.0 0 1 29.75 139.70
  L 29.75 126.30
  A 0.31 0.31 0.0 0 1 30.06 125.99
  L 275.37 125.98
  A 0.31 0.31 0.0 0 1 275.59 126.51
  Z"
/>
<path fill="#0b57a3" d="
  M 49.23 166.75
  L 104.47 166.77
  A 0.53 0.53 0.0 0 1 105.00 167.30
  L 105.01 181.49
  A 0.53 0.53 0.0 0 1 104.48 182.02
  L 44.90 182.01
  A 0.53 0.53 0.0 0 1 44.52 181.85
  L 29.90 167.22
  A 0.53 0.53 0.0 0 1 29.75 166.84
  L 29.75 143.51
  A 0.53 0.53 0.0 0 1 30.28 142.98
  L 48.23 142.99
  A 0.53 0.53 0.0 0 1 48.76 143.52
  L 48.70 166.22
  A 0.53 0.53 0.0 0 0 49.23 166.75
  Z"
/>
<path fill="#0b57a3" d="
  M 127.95 147.99
  L 183.23 147.99
  A 0.49 0.49 0.0 0 1 183.72 148.48
  L 183.78 162.76
  A 0.49 0.49 0.0 0 1 183.29 163.25
  L 127.92 163.23
  A 0.49 0.49 0.0 0 0 127.43 163.72
  L 127.51 181.53
  A 0.49 0.49 0.0 0 1 127.02 182.02
  L 109.01 182.01
  A 0.49 0.49 0.0 0 1 108.52 181.52
  L 108.52 143.48
  A 0.49 0.49 0.0 0 1 109.01 142.99
  L 127.01 142.98
  A 0.49 0.49 0.0 0 1 127.51 143.48
  L 127.46 147.50
  A 0.49 0.49 0.0 0 0 127.95 147.99
  Z"
/>
<path fill="#0b57a3" d="
  M 206.80 148.00
  L 262.13 147.99
  A 0.61 0.61 0.0 0 1 262.74 148.60
  L 262.73 166.61
  A 0.61 0.61 0.0 0 1 262.55 167.04
  L 247.76 181.84
  A 0.61 0.61 0.0 0 1 247.33 182.02
  L 189.86 182.01
  A 0.61 0.61 0.0 0 1 189.25 181.40
  L 189.27 167.37
  A 0.61 0.61 0.0 0 1 189.88 166.76
  L 243.33 166.76
  A 0.61 0.61 0.0 0 0 243.94 166.15
  L 243.93 163.86
  A 0.61 0.61 0.0 0 0 243.32 163.25
  L 187.88 163.25
  A 0.61 0.61 0.0 0 1 187.27 162.64
  L 187.23 143.62
  A 0.61 0.61 0.0 0 1 187.84 143.01
  L 205.64 142.97
  A 0.61 0.61 0.0 0 1 206.25 143.59
  L 206.19 147.38
  A 0.61 0.61 0.0 0 0 206.80 148.00
  Z"
/>
<path fill="#ec202b" d="
  M 37.17 197.62
  Q 36.15 201.31 36.72 205.82
  C 37.09 208.79 36.35 211.68 40.67 211.73
  Q 46.13 211.79 51.59 211.73
  C 53.85 211.71 54.93 210.72 55.12 208.56
  Q 55.16 207.99 55.73 207.99
  L 60.98 208.00
  Q 61.45 208.00 61.51 208.47
  Q 62.64 217.11 54.29 217.40
  Q 42.53 217.80 36.75 217.29
  C 31.15 216.80 30.33 212.78 30.27 207.70
  Q 30.20 200.37 30.32 197.50
  C 30.57 191.18 34.97 190.26 40.58 190.26
  C 45.44 190.26 53.85 189.40 57.58 191.25
  Q 61.79 193.33 61.75 199.22
  Q 61.74 199.77 61.19 199.77
  L 55.74 199.75
  Q 55.14 199.75 55.06 199.15
  Q 54.63 195.80 51.75 195.76
  Q 45.66 195.68 39.58 195.76
  A 2.53 2.52 7.3 0 0 37.17 197.62
  Z"
/>
<path fill="#ec202b" d="
  M 131.2391 210.0974
  A 7.37 7.37 0.0 0 1 123.8563 217.4546
  L 107.1363 217.4254
  A 7.37 7.37 0.0 0 1 99.7792 210.0425
  L 99.8009 197.5826
  A 7.37 7.37 0.0 0 1 107.1837 190.2254
  L 123.9037 190.2546
  A 7.37 7.37 0.0 0 1 131.2608 197.6375
  L 131.2391 210.0974
  Z
  M 124.6918 199.0641
  A 3.32 3.32 0.0 0 0 121.3660 195.7499
  L 109.7660 195.7701
  A 3.32 3.32 0.0 0 0 106.4518 199.0959
  L 106.4682 208.4559
  A 3.32 3.32 0.0 0 0 109.7940 211.7701
  L 121.3940 211.7499
  A 3.32 3.32 0.0 0 0 124.7082 208.4241
  L 124.6918 199.0641
  Z"
/>
<path fill="#ec202b" d="
  M 92.62 207.33
  C 96.93 208.61 96.16 212.82 95.92 217.09
  Q 95.89 217.50 95.48 217.50
  L 89.75 217.51
  A 0.64 0.64 0.0 0 1 89.11 216.82
  C 89.38 212.94 90.27 209.69 84.84 209.55
  Q 78.67 209.39 72.49 209.53
  Q 72.00 209.55 72.00 210.03
  L 72.00 217.00
  Q 72.00 217.51 71.50 217.51
  L 66.13 217.50
  Q 65.50 217.50 65.50 216.88
  L 65.50 191.02
  Q 65.50 190.54 65.98 190.53
  Q 76.07 190.43 85.99 190.53
  C 89.69 190.57 92.49 190.84 94.36 194.42
  Q 97.79 201.01 92.48 206.80
  Q 92.13 207.18 92.62 207.33
  Z
  M 72.00 196.41
  L 72.00 203.59
  A 0.42 0.42 0.0 0 0 72.42 204.01
  L 85.58 204.01
  A 3.40 3.37 -0.0 0 0 88.98 200.64
  L 88.98 199.36
  A 3.40 3.37 0.0 0 0 85.58 195.99
  L 72.42 195.99
  A 0.42 0.42 0.0 0 0 72.00 196.41
  Z"
/>
<path fill="#ec202b" d="
  M 158.71 196.72
  A 1.60 1.58 78.5 0 0 157.27 195.75
  Q 151.28 195.72 145.30 195.76
  C 143.67 195.77 142.42 196.44 142.09 198.02
  A 2.47 2.46 5.8 0 0 144.52 200.99
  Q 151.77 200.93 159.75 200.99
  C 168.29 201.06 168.37 217.45 158.00 217.55
  Q 151.53 217.61 142.27 217.39
  Q 134.91 217.21 134.93 210.12
  Q 134.93 209.50 135.55 209.50
  L 140.77 209.49
  Q 141.40 209.49 141.64 210.07
  Q 142.51 212.15 144.24 212.20
  Q 150.00 212.39 155.74 212.14
  C 160.38 211.94 160.04 206.28 156.25 206.27
  Q 149.49 206.25 142.74 206.15
  Q 135.59 206.04 135.58 198.51
  C 135.56 191.37 139.60 190.65 145.85 190.58
  Q 150.80 190.53 155.75 190.54
  C 161.32 190.54 165.43 191.40 165.81 197.62
  Q 165.85 198.25 165.22 198.25
  L 159.97 198.25
  Q 159.36 198.25 159.12 197.69
  L 158.71 196.72
  Z"
/>
<path fill="#ec202b" d="
  M 193.18 196.80
  A 1.73 1.71 -11.2 0 0 191.61 195.76
  Q 185.77 195.71 179.93 195.79
  C 175.55 195.84 175.47 200.97 179.82 200.97
  Q 187.03 200.98 194.23 201.11
  C 199.39 201.21 200.07 204.69 200.36 209.05
  C 200.86 216.57 195.33 217.50 189.05 217.51
  Q 183.12 217.52 177.28 217.51
  Q 169.72 217.48 169.37 210.15
  A 0.64 0.63 -1.3 0 1 170.01 209.49
  L 175.28 209.49
  A 0.85 0.83 75.7 0 1 176.02 209.94
  Q 177.19 212.21 179.24 212.24
  C 182.32 212.29 189.72 212.94 192.27 211.60
  C 194.65 210.35 194.05 206.40 191.00 206.36
  Q 184.14 206.27 177.27 206.33
  Q 170.95 206.38 170.12 200.30
  Q 168.84 191.00 177.99 190.72
  Q 185.38 190.49 192.73 190.58
  Q 199.99 190.68 200.29 197.69
  Q 200.31 198.26 199.74 198.26
  L 194.46 198.26
  Q 193.82 198.26 193.57 197.68
  L 193.18 196.80
  Z"
/>
<path fill="#ec202b" d="
  M 210.98 196.37
  L 210.93 200.37
  A 0.38 0.38 0.0 0 0 211.31 200.75
  L 230.89 200.75
  A 0.38 0.38 0.0 0 1 231.27 201.13
  L 231.26 205.88
  A 0.38 0.38 0.0 0 1 230.88 206.26
  L 211.34 206.25
  A 0.38 0.38 0.0 0 0 210.96 206.63
  L 211.02 217.12
  A 0.38 0.38 0.0 0 1 210.64 217.50
  L 204.63 217.51
  A 0.38 0.38 0.0 0 1 204.25 217.13
  L 204.27 190.91
  A 0.38 0.38 0.0 0 1 204.65 190.53
  L 231.63 190.51
  A 0.38 0.38 0.0 0 1 232.01 190.89
  L 232.00 195.63
  A 0.38 0.38 0.0 0 1 231.62 196.01
  L 211.36 195.99
  A 0.38 0.38 0.0 0 0 210.98 196.37
  Z"
/>
<rect fill="#ec202b" x="236.50" y="190.51" width="6.50" height="27.00" rx="0.44"/>
<path fill="#ec202b" d="
  M 257.59 196.00
  L 247.16 195.99
  A 0.41 0.41 0.0 0 1 246.75 195.58
  L 246.73 190.92
  A 0.41 0.41 0.0 0 1 247.14 190.51
  L 275.43 190.51
  A 0.41 0.41 0.0 0 1 275.84 190.92
  L 275.80 195.60
  A 0.41 0.41 0.0 0 1 275.39 196.01
  L 264.89 195.98
  A 0.41 0.41 0.0 0 0 264.48 196.39
  L 264.51 217.10
  A 0.41 0.41 0.0 0 1 264.10 217.51
  L 258.39 217.49
  A 0.41 0.41 0.0 0 1 257.98 217.08
  L 258.00 196.41
  A 0.41 0.41 0.0 0 0 257.59 196.00
  Z"
/>
<path fill="#0233ac" d="
  M 178.0361 237.4045
  A 4.64 4.64 0.0 0 1 173.3799 242.0282
  L 162.9000 241.9917
  A 4.64 4.64 0.0 0 1 158.2762 237.3355
  L 158.3039 229.3955
  A 4.64 4.64 0.0 0 1 162.9601 224.7718
  L 173.4400 224.8083
  A 4.64 4.64 0.0 0 1 178.0638 229.4645
  L 178.0361 237.4045
  Z
  M 176.2125 229.7979
  A 3.02 3.02 0.0 0 0 173.2031 226.7674
  L 163.2631 226.7327
  A 3.02 3.02 0.0 0 0 160.2326 229.7421
  L 160.2075 236.9421
  A 3.02 3.02 0.0 0 0 163.2169 239.9726
  L 173.1569 240.0073
  A 3.02 3.02 0.0 0 0 176.1874 236.9979
  L 176.2125 229.7979
  Z"
/>
<path fill="#0233ac" d="
  M 80.25 239.97
  C 85.01 239.91 85.28 234.28 80.79 234.26
  Q 75.29 234.24 69.84 234.17
  C 65.30 234.11 64.35 228.18 67.45 225.94
  C 69.80 224.24 76.49 224.98 79.50 225.00
  C 82.63 225.03 85.52 225.81 85.55 229.35
  A 0.89 0.89 0.0 0 1 83.80 229.60
  C 83.19 227.54 81.86 227.02 79.74 227.01
  Q 75.22 226.99 70.72 227.03
  C 68.62 227.05 67.18 228.23 67.75 230.40
  A 2.47 2.46 -7.3 0 0 70.14 232.24
  Q 75.53 232.25 80.99 232.31
  C 86.14 232.37 87.69 239.23 83.49 241.36
  C 80.84 242.69 72.23 242.08 70.52 241.98
  Q 66.52 241.76 65.88 237.58
  A 0.49 0.48 83.2 0 1 66.31 237.03
  L 67.20 236.94
  Q 67.69 236.89 67.79 237.38
  Q 68.32 239.88 71.01 239.93
  Q 75.62 240.02 80.25 239.97
  Z"
/>
<path fill="#0233ac" d="
  M 105.99 237.24
  L 105.98 225.50
  Q 105.98 224.98 106.50 224.97
  L 107.43 224.96
  Q 108.02 224.95 108.01 225.54
  Q 107.99 231.41 108.01 237.25
  C 108.02 243.83 97.36 242.07 93.26 241.95
  C 89.45 241.84 88.34 239.59 88.27 235.99
  Q 88.17 230.76 88.26 225.56
  Q 88.27 225.02 88.81 224.99
  L 89.58 224.95
  Q 90.24 224.92 90.24 225.58
  L 90.20 237.17
  A 2.79 2.79 0.0 0 0 92.99 239.97
  L 103.25 239.98
  A 2.74 2.74 0.0 0 0 105.99 237.24
  Z"
/>
<path fill="#0233ac" d="
  M 112.38 235.69
  L 112.46 241.38
  A 0.65 0.64 87.7 0 1 111.86 242.04
  Q 110.54 242.14 110.53 241.01
  Q 110.46 233.27 110.51 225.55
  Q 110.51 225.02 111.03 225.01
  Q 116.72 224.93 122.33 225.00
  C 126.87 225.06 129.98 227.01 128.35 232.00
  A 1.83 1.71 80.7 0 1 127.81 232.81
  L 127.27 233.26
  Q 126.82 233.63 127.12 234.13
  Q 129.08 237.44 128.38 241.46
  A 0.94 0.94 0.0 0 1 126.51 241.28
  L 126.58 237.21
  A 2.13 2.12 -89.5 0 0 124.46 235.04
  L 113.06 235.00
  Q 112.37 235.00 112.38 235.69
  Z
  M 126.6145 228.5650
  A 1.61 1.61 0.0 0 0 124.9878 226.9719
  L 113.8684 227.0884
  A 1.61 1.61 0.0 0 0 112.2753 228.7152
  L 112.3055 231.5950
  A 1.61 1.61 0.0 0 0 113.9322 233.1881
  L 125.0516 233.0716
  A 1.61 1.61 0.0 0 0 126.6447 231.4448
  L 126.6145 228.5650
  Z"
/>
<path fill="#0233ac" d="
  M 133.15 227.25
  L 133.25 241.29
  Q 133.26 242.08 132.46 242.05
  L 131.89 242.03
  A 0.64 0.64 0.0 0 1 131.28 241.39
  L 131.23 225.64
  Q 131.23 225.01 131.86 225.00
  L 134.52 224.97
  Q 135.16 224.96 135.49 225.51
  L 143.23 238.53
  A 0.47 0.47 0.0 0 0 144.04 238.53
  Q 147.29 233.05 150.50 227.40
  C 151.79 225.14 152.99 224.12 155.58 225.17
  Q 156.00 225.34 156.00 225.80
  L 156.00 241.37
  Q 156.00 241.98 155.38 242.01
  L 154.53 242.05
  Q 153.98 242.08 153.98 241.53
  L 154.00 227.02
  A 0.43 0.42 81.8 0 0 153.46 226.61
  Q 152.95 226.76 152.61 227.35
  Q 148.37 234.66 144.25 241.70
  A 0.74 0.74 0.0 0 1 142.97 241.70
  L 134.31 226.93
  A 0.62 0.62 0.0 0 0 133.15 227.25
  Z"
/>
<path fill="#0233ac" d="
  M 198.12 237.84
  Q 198.56 232.65 198.17 226.74
  Q 198.10 225.71 198.44 225.30
  Q 198.90 224.76 199.85 225.03
  Q 200.23 225.14 200.23 225.54
  L 200.22 237.33
  A 4.66 4.64 -1.0 0 1 195.72 241.97
  Q 190.34 242.14 185.01 241.92
  C 181.28 241.77 180.54 238.73 180.52 235.41
  Q 180.47 230.54 180.52 225.67
  Q 180.53 224.99 181.22 224.99
  L 181.86 225.00
  Q 182.47 225.00 182.47 225.61
  L 182.44 237.31
  A 2.67 2.66 89.9 0 0 185.11 239.98
  L 195.81 239.97
  A 2.33 2.32 -87.6 0 0 198.12 237.84
  Z"
/>
<path fill="#0233ac" d="
  M 219.62 238.98
  L 219.48 225.74
  Q 219.48 225.25 219.94 225.07
  Q 220.72 224.78 221.16 225.08
  Q 221.50 225.31 221.50 226.04
  Q 221.45 233.85 221.49 240.79
  A 1.53 1.53 0.0 0 1 218.80 241.81
  Q 212.35 234.41 205.80 226.94
  Q 205.50 226.60 205.12 226.48
  A 0.35 0.35 0.0 0 0 204.67 226.82
  Q 204.82 234.16 204.70 241.50
  Q 204.69 241.92 203.65 242.05
  A 0.78 0.77 86.4 0 1 202.78 241.28
  L 202.76 225.49
  Q 202.76 224.98 203.26 224.98
  L 206.27 224.97
  Q 206.91 224.97 207.33 225.46
  L 219.04 239.20
  A 0.33 0.33 0.0 0 0 219.62 238.98
  Z"
/>
<path fill="#0233ac" d="
  M 233.18 227.45
  L 233.26 241.57
  A 0.43 0.43 0.0 0 1 232.84 242.00
  L 231.66 242.04
  A 0.43 0.43 0.0 0 1 231.22 241.61
  L 231.29 227.44
  A 0.43 0.43 0.0 0 0 230.86 227.01
  L 223.60 227.01
  A 0.43 0.43 0.0 0 1 223.17 226.57
  L 223.18 225.41
  A 0.43 0.43 0.0 0 1 223.61 224.99
  L 241.22 224.98
  A 0.43 0.43 0.0 0 1 241.64 225.47
  L 241.49 226.63
  A 0.43 0.43 0.0 0 1 241.06 227.00
  L 233.61 227.02
  A 0.43 0.43 0.0 0 0 233.18 227.45
  Z"
/>
<rect fill="#ec202b" x="-15.53" y="-0.80" transform="translate(45.50,234.21) rotate(-0.1)" width="31.06" height="1.60" rx="0.39"/>
<rect fill="#ec202b" x="-16.49" y="-0.81" transform="translate(260.51,234.20) rotate(0.1)" width="32.98" height="1.62" rx="0.71"/>
<path fill="#0b57a3" d="
  M 66.71 245.77
  L 97.96 245.74
  A 0.33 0.33 0.0 0 1 98.18 246.32
  L 49.47 288.54
  A 0.33 0.33 0.0 0 1 48.95 288.16
  L 66.41 245.97
  A 0.33 0.33 0.0 0 1 66.71 245.77
  Z"
/>
<path fill="#0b57a3" d="
  M 251.42 287.07
  L 203.16 246.28
  A 0.30 0.30 0.0 0 1 203.35 245.75
  L 234.23 245.76
  A 0.30 0.30 0.0 0 1 234.51 245.94
  L 251.88 286.73
  A 0.30 0.30 0.0 0 1 251.42 287.07
  Z"
/>
</svg>
